<?xml version="1.0" encoding="UTF-8" standalone="no" ?>
<!DOCTYPE svg PUBLIC "-//W3C//DTD SVG 1.1//EN" "http://www.w3.org/Graphics/SVG/1.1/DTD/svg11.dtd">
<svg xmlns="http://www.w3.org/2000/svg" xmlns:xlink="http://www.w3.org/1999/xlink" version="1.1" viewBox="0 0 600 480" xml:space="preserve">

<defs>
</defs>
<g transform="matrix(0.12 0 0 0.12 303.25 191.58)"  >
<path style="stroke: none; stroke-width: 1; stroke-dasharray: none; stroke-linecap: butt; stroke-dashoffset: 0; stroke-linejoin: miter; stroke-miterlimit: 4; fill: rgb(0,0,0); fill-rule: nonzero; opacity: 1;"  transform=" translate(-593.69, -379.8)" d="M 977.35 434.78 C 977.2 418.55999999999995 970.99 402.78 955.47 398.42999999999995 C 935.61 392.86999999999995 932.71 380.25999999999993 931.15 363.42999999999995 C 926.34 311.71999999999997 898.15 280.47999999999996 848.41 264.71999999999997 C 803.6824884457826 250.6687087151671 758.019042160819 239.79168583499464 711.7599999999993 232.1699999999998 C 700.61 230.3 694.59 227.78 692 215 C 687.35 191.95 672.35 179.47 647.35 179.17000000000002 C 637.9 179.06 620.2900000000001 186.45000000000002 620.1700000000001 171.45000000000002 C 619.9900000000001 151.45000000000002 604.2500000000001 128.22000000000003 626.6500000000001 110.77000000000001 C 646.6500000000001 95.15 657.5200000000001 75.94000000000001 653.1300000000001 49.94000000000001 C 651.41 35.19 639.53 6.6 593.33 0.47 C 577.2001776749117 -1.6798783625326246 560.9666289801714 3.6099115815046554 549.2 14.850000000000032 C 520.75 42.36 518.8100000000001 75.73 546.5 100 C 567.27 118.17 567.27 135.19 565.27 158.27 C 563.6999999999999 175.92000000000002 558.0799999999999 181.21 541.14 179.78 C 515.14 177.6 499.7 191.89 495.06 216.19 C 492.77 228.19 486.85 230.19 476.85 231.9 C 431.52000000000004 239.67000000000002 386.85 249.76 342.70000000000005 263.32 C 304.83000000000004 274.96 277.49000000000007 295.87 261.18000000000006 331.62 C 248.81000000000006 347.2 254.45000000000007 366.04 251.81000000000006 383.38 C 252.66000000000005 389.93 248.52000000000007 392.03 243.20000000000005 393.46 C 217.28000000000003 400.46 208.91000000000005 419.07 209.72000000000006 444.65999999999997 Q 211.32000000000005 492.86999999999995 209.79000000000005 541.0699999999999 C 209.07000000000005 563.6099999999999 217.13000000000005 581.3499999999999 238.69000000000005 588.3499999999999 C 252.03000000000006 592.68 254.69000000000005 601.1399999999999 255.33000000000004 612.7399999999999 C 258.69000000000005 671.5899999999999 291.18000000000006 704.2099999999999 346.49 721.3199999999999 C 510.77 772.15 674.26 772.3199999999999 838.7 722.0999999999999 C 894.7 704.9899999999999 928.9200000000001 672.8199999999999 932.0300000000001 612.5699999999999 C 932.7200000000001 599.3 938.0300000000001 592.02 951.33 587.3 C 968.5400000000001 581.2199999999999 977.2700000000001 566.49 977.4100000000001 547.9799999999999 Q 977.82 491.39 977.35 434.78 Z M 826.35 560.86 C 823.35 578.67 818.1 597.78 802.4300000000001 606.21 C 777.7900000000001 619.47 749.4300000000001 634.82 654.0400000000001 643.84 C 593.6400000000001 651.9300000000001 499.0400000000001 646.12 426.49000000000007 627.01 C 382.33000000000004 615.36 363.01000000000005 593.56 358.80000000000007 547.8199999999999 C 355.3400000000001 510.24999999999994 356.0200000000001 472.42999999999995 358.64000000000004 434.75999999999993 C 361.49000000000007 393.9799999999999 383.28000000000003 367.65999999999997 422.64000000000004 357.50999999999993 C 535.12 328.50999999999993 648.03 327.50999999999993 760.51 356.7099999999999 C 809.1 369.3299999999999 827.18 393.25999999999993 829.21 442.9899999999999 C 830.85 482.28 833.1 521.72 826.39 560.86 Z" stroke-linecap="round" />
</g>
<g transform="matrix(0.12 0 0 0.12 292.48 205.02)"  >
<path style="stroke: none; stroke-width: 1; stroke-dasharray: none; stroke-linecap: butt; stroke-dashoffset: 0; stroke-linejoin: miter; stroke-miterlimit: 4; fill: rgb(0,0,0); fill-rule: nonzero; opacity: 1;"  transform=" translate(-503.93, -491.78)" d="M 527.53 499.47 C 518.53 500.03000000000003 507.96 506.90000000000003 511.75 523.97 C 514.91 538.15 507.75 537.73 498.43 536.73 C 475.23 534.25 457.43 513.52 458.23 490.03000000000003 C 459.04 467.03000000000003 478.58000000000004 447.48 501.72 446.45000000000005 C 526.2 445.36000000000007 546.72 462.01000000000005 549.23 485.09000000000003 C 550.71 498.61 549.41 499.9 527.53 499.47 Z" stroke-linecap="round" />
</g>
<g transform="matrix(0.12 0 0 0.12 314.05 205.01)"  >
<path style="stroke: none; stroke-width: 1; stroke-dasharray: none; stroke-linecap: butt; stroke-dashoffset: 0; stroke-linejoin: miter; stroke-miterlimit: 4; fill: rgb(0,0,0); fill-rule: nonzero; opacity: 1;"  transform=" translate(-683.65, -491.81)" d="M 637.8 491.87 C 637.6999999999999 467.27 654.88 448.45 679.14 446.58 C 703.63 444.7 726.6899999999999 462.77 728.72 486.27 C 729.44 494.65 732.98 505.40999999999997 715.39 500.65 C 698 496 687 505.94 690.64 524.21 C 693.64 539.0300000000001 686.0699999999999 537.6 677.1999999999999 536.6 C 654.34 534 637.88 515.21 637.8 491.87 Z" stroke-linecap="round" />
</g>
<g transform="matrix(0.12 0 0 0.12 303.25 266.16)"  >
<path style="stroke: none; stroke-width: 1; stroke-dasharray: none; stroke-linecap: butt; stroke-dashoffset: 0; stroke-linejoin: miter; stroke-miterlimit: 4; fill: rgb(0,0,0); fill-rule: nonzero; opacity: 1;"  transform=" translate(-593.64, -1001.29)" d="M 263 715 C 341 838.79 449 909.1 596.54 907.78 C 743.29 906.47 849.72 834.53 924.28 710.16 Q 910.16 768.31 896.1 826.49 C 891.7495611824479 844.5395774003197 886.4725742925452 862.3531631254372 880.2900000000001 879.86 C 851.85 969.86 818.96 1057.1 772.09 1138.48 C 744.62 1186.2 713.58 1231.15 669 1265 C 620.83 1301.5 565.38 1301.57 517.35 1265.17 C 469.32000000000005 1228.7700000000002 436.8 1180.1100000000001 408.35 1128.43 C 352.66 1027.5 314.91 919.5600000000001 285.75 808.4300000000001 C 277.53 777.43 270.53 746.16 263 715 Z" stroke-linecap="round" />
</g>
<g transform="matrix(0.12 0 0 0.12 360.02 232.46)"  >
<path style="stroke: none; stroke-width: 1; stroke-dasharray: none; stroke-linecap: butt; stroke-dashoffset: 0; stroke-linejoin: miter; stroke-miterlimit: 4; fill: rgb(0,0,0); fill-rule: nonzero; opacity: 1;"  transform=" translate(-1066.74, -720.49)" d="M 1112.53 619.18 C 1164.21 618.8 1180.53 643.67 1167.09 692.5899999999999 C 1156.6599999999999 730.5899999999999 1138.82 765.1399999999999 1112.26 794.5899999999999 C 1084.57 825.3499999999999 1046.69 831.1999999999999 1013.78 806.1899999999999 C 996.78 793.29 981.98 775.5899999999999 970.99 757.1899999999999 C 954.49 729.54 961.21 694.3799999999999 985.19 673.81 C 1024 640.54 1069.86 623.15 1112.53 619.18 Z" stroke-linecap="round" />
</g>
<g transform="matrix(0.12 0 0 0.12 244.59 232.46)"  >
<path style="stroke: none; stroke-width: 1; stroke-dasharray: none; stroke-linecap: butt; stroke-dashoffset: 0; stroke-linejoin: miter; stroke-miterlimit: 4; fill: rgb(0,0,0); fill-rule: nonzero; opacity: 1;"  transform=" translate(-104.84, -720.49)" d="M 59.05 619.18 C 7.369999999999997 618.8 -8.950000000000003 643.67 4.5 692.5899999999999 C 14.92 730.5899999999999 32.769999999999996 765.1399999999999 59.33 794.5899999999999 C 87.02 825.3499999999999 124.89999999999999 831.1999999999999 157.81 806.1899999999999 C 174.81 793.29 189.61 775.5899999999999 200.59 757.1899999999999 C 217.1 729.54 210.38 694.3799999999999 186.4 673.81 C 147.53 640.54 101.68 623.15 59.05 619.18 Z" stroke-linecap="round" />
</g>
</svg>