<svg width="600" height="480" xmlns="http://www.w3.org/2000/svg" version="1.1" xml:space="preserve">
 <g>
  <title>Layer 1</title>
  <g transform="matrix(1 0 0 1 360.3 225.93)" id="svg_1">
   <text x="-314" y="-362" xml:space="preserve" font-family="YouSheBiaoTiHei" font-size="45" font-style="normal" font-weight="normal" stroke=" none" stroke-dasharray=" none" stroke-linecap=" butt" stroke-dashoffset="0" stroke-linejoin=" miter" stroke-miterlimit="4" fill=" rgb(0,0,0)" fill-rule=" nonzero" id="svg_2">
    <tspan x="-251.8" y="-167.86" id="svg_3">华飞科技</tspan>
   </text>
  </g>
  <g transform="matrix(1 0 0 1 358.97 261.41)" id="svg_4">
   <text x="-316" y="-361" xml:space="preserve" font-family="WenCang-Regular" font-size="14" font-style="normal" font-weight="normal" stroke=" none" stroke-dasharray=" none" stroke-linecap=" butt" stroke-dashoffset="0" stroke-linejoin=" miter" stroke-miterlimit="4" fill=" rgb(0,0,0)" fill-rule=" nonzero" id="svg_5">
    <tspan x="-245.47" y="-176.6" id="svg_6">A</tspan>
    <tspan x="-231.82" y="-176.6" id="svg_7">I</tspan>
    <tspan x="-226.03" y="-176.6" id="svg_8">数</tspan>
    <tspan x="-211.33" y="-176.6" id="svg_9">字</tspan>
    <tspan x="-196.63" y="-176.6" id="svg_10">智</tspan>
    <tspan x="-181.93" y="-176.6" id="svg_11">能</tspan>
    <tspan x="-167.23" y="-176.6" id="svg_12">产</tspan>
    <tspan x="-152.53" y="-176.6" id="svg_13">业</tspan>
    <tspan x="-137.83" y="-176.6" id="svg_14">领</tspan>
    <tspan x="-123.13" y="-176.6" id="svg_15">导</tspan>
    <tspan x="-108.43" y="-176.6" id="svg_16">者</tspan>
   </text>
  </g>
  <g transform="matrix(0.08 0 0 0.08 198.4 217.88)" id="svg_17">
   <path d="m-1428.83988,-2195.01975c-0.15,-16.22 -6.36,-32 -21.88,-36.35c-19.86,-5.56 -22.76,-18.17 -24.32,-35c-4.81,-51.71 -33,-82.95 -82.74,-98.71c-44.72751,-14.05129 -90.39096,-24.92831 -136.65,-32.55c-11.15,-1.87 -17.17,-4.39 -19.76,-17.17c-4.65,-23.05 -19.65,-35.53 -44.65,-35.83c-9.45,-0.11 -27.06,7.28 -27.18,-7.72c-0.18,-20 -15.92,-43.23 6.48,-60.68c20,-15.62 30.87,-34.83 26.48,-60.83c-1.72,-14.75 -13.6,-43.34 -59.8,-49.47c-16.12982,-2.14988 -32.36337,3.13991 -44.13,14.38c-28.45,27.51 -30.39,60.88 -2.7,85.15c20.77,18.17 20.77,35.19 18.77,58.27c-1.57,17.65 -7.19,22.94 -24.13,21.51c-26,-2.18 -41.44,12.11 -46.08,36.41c-2.29,12 -8.21,14 -18.21,15.71c-45.33,7.77 -90,17.86 -134.15,31.42c-37.87,11.64 -65.21,32.55 -81.52,68.3c-12.37,15.58 -6.73,34.42 -9.37,51.76c0.85,6.55 -3.29,8.65 -8.61,10.08c-25.92,7 -34.29,25.61 -33.48,51.2q1.6,48.21 0.07,96.41c-0.72,22.54 7.34,40.28 28.9,47.28c13.34,4.33 16,12.79 16.64,24.39c3.36,58.85 35.85,91.47 91.16,108.58c164.28,50.83 327.77,51 492.21,0.78c56,-17.11 90.22,-49.28 93.33,-109.53c0.69,-13.27 6,-20.55 19.3,-25.27c17.21,-6.08 25.94,-20.81 26.08,-39.32q0.41,-56.59 -0.06,-113.2zm-151,126.08c-3,17.81 -8.25,36.92 -23.92,45.35c-24.64,13.26 -53,28.61 -148.39,37.63c-60.4,8.09 -155,2.28 -227.55,-16.83c-44.16,-11.65 -63.48,-33.45 -67.69,-79.19c-3.46,-37.57 -2.78,-75.39 -0.16,-113.06c2.85,-40.78 24.64,-67.1 64,-77.25c112.48,-29 225.39,-30 337.87,-0.8c48.59,12.62 66.67,36.55 68.7,86.28c1.64,39.29 3.89,78.73 -2.82,117.87l-0.04,0z" stroke-linecap=" butt" stroke=" none" stroke-dasharray=" none" stroke-dashoffset="0" stroke-linejoin=" miter" stroke-miterlimit="4" fill=" rgb(0,0,0)" fill-rule=" nonzero" id="svg_18"/>
  </g>
  <g transform="matrix(0.08 0 0 0.08 191.23 226.84)" id="svg_19">
   <path d="m-1788.89987,-2242.30975c-9,0.56 -19.57,7.43 -15.78,24.5c3.16,14.18 -4,13.76 -13.32,12.76c-23.2,-2.48 -41,-23.21 -40.2,-46.7c0.81,-23 20.35,-42.55 43.49,-43.58c24.48,-1.09 45,15.56 47.51,38.64c1.48,13.52 0.18,14.81 -21.7,14.38z" stroke-linecap=" butt" stroke=" none" stroke-dasharray=" none" stroke-dashoffset="0" stroke-linejoin=" miter" stroke-miterlimit="4" fill=" rgb(0,0,0)" fill-rule=" nonzero" id="svg_20"/>
  </g>
  <g transform="matrix(0.08 0 0 0.08 205.6 226.85)" id="svg_21">
   <path d="m-1858.3499,-2249.93975c-0.1,-24.6 17.08,-43.42 41.34,-45.29c24.49,-1.88 47.55,16.19 49.58,39.69c0.72,8.38 4.26,19.14 -13.33,14.38c-17.39,-4.65 -28.39,5.29 -24.75,23.56c3,14.82 -4.57,13.39 -13.44,12.39c-22.86,-2.6 -39.32,-21.39 -39.4,-44.73z" stroke-linecap=" butt" stroke=" none" stroke-dasharray=" none" stroke-dashoffset="0" stroke-linejoin=" miter" stroke-miterlimit="4" fill=" rgb(0,0,0)" fill-rule=" nonzero" id="svg_22"/>
  </g>
  <g transform="matrix(0.08 0 0 0.08 198.4 267.6)" id="svg_23">
   <path d="m-2143.13989,-2536.28974c78,123.79 186,194.1 333.54,192.78c146.75,-1.31 253.18,-73.25 327.74,-197.62q-14.12,58.15 -28.18,116.33c-4.35044,18.04958 -9.62743,35.86316 -15.81,53.37c-28.44,90 -61.33,177.24 -108.2,258.62c-27.47,47.72 -58.51,92.67 -103.09,126.52c-48.17,36.5 -103.62,36.57 -151.65,0.17c-48.03,-36.4 -80.55,-85.06 -109,-136.74c-55.69,-100.93 -93.44,-208.87 -122.6,-320c-8.22,-31 -15.22,-62.27 -22.75,-93.43z" stroke-linecap=" butt" stroke=" none" stroke-dasharray=" none" stroke-dashoffset="0" stroke-linejoin=" miter" stroke-miterlimit="4" fill=" rgb(0,0,0)" fill-rule=" nonzero" id="svg_24"/>
  </g>
  <g transform="matrix(0.08 0 0 0.08 236.25 245.14)" id="svg_25">
   <path d="m-1766.70987,-2351.30975c51.68,-0.38 68,24.49 54.56,73.41c-10.43,38 -28.27,72.55 -54.83,102c-27.69,30.76 -65.57,36.61 -98.48,11.6c-17,-12.9 -31.8,-30.6 -42.79,-49c-16.5,-27.65 -9.78,-62.81 14.2,-83.38c38.81,-33.27 84.67,-50.66 127.34,-54.63z" stroke-linecap=" butt" stroke=" none" stroke-dasharray=" none" stroke-dashoffset="0" stroke-linejoin=" miter" stroke-miterlimit="4" fill=" rgb(0,0,0)" fill-rule=" nonzero" id="svg_26"/>
  </g>
  <g transform="matrix(0.08 0 0 0.08 159.3 245.14)" id="svg_27">
   <path d="m-1858.28988,-2351.30975c-51.68,-0.38 -68,24.49 -54.55,73.41c10.42,38 28.27,72.55 54.83,102c27.69,30.76 65.57,36.61 98.48,11.6c17,-12.9 31.8,-30.6 42.78,-49c16.51,-27.65 9.79,-62.81 -14.19,-83.38c-38.87,-33.27 -84.72,-50.66 -127.35,-54.63z" stroke-linecap=" butt" stroke=" none" stroke-dasharray=" none" stroke-dashoffset="0" stroke-linejoin=" miter" stroke-miterlimit="4" fill=" rgb(0,0,0)" fill-rule=" nonzero" id="svg_28"/>
  </g>
 </g>

</svg>